HIERARCHY
ROOT Beta:Hips
{
	OFFSET 0.00 0.00 0.00
	CHANNELS 6 Xposition Yposition Zposition Yrotation Xrotation Zrotation
	JOINT Beta:Spine
	{
		OFFSET	0.0000	9.2263	1.5771
		CHANNELS 3 Xrotation Yrotation Zrotation
		JOINT Beta:Spine1
		{
			OFFSET	0.0000	16.2540	-0.1656
			CHANNELS 3 Xrotation Yrotation Zrotation
			JOINT Beta:Spine2
			{
				OFFSET	0.0000	13.6396	-1.2923
				CHANNELS 3 Xrotation Yrotation Zrotation
				JOINT Beta:Neck
				{
					OFFSET	0.0000	13.8774	-4.3542
					CHANNELS 3 Xrotation Yrotation Zrotation
					JOINT Beta:Neck1
					{
						OFFSET	0.0000	4.3400	0.9269
						CHANNELS 3 Xrotation Yrotation Zrotation
						JOINT Beta:Head
						{
							OFFSET	0.0000	4.0266	0.8585
							CHANNELS 3 Xrotation Yrotation Zrotation
							End Site
							{
								OFFSET 0.0000 23.0297 0.1231
							}
						}
					}
				}
				JOINT Beta:LeftShoulder
				{
					OFFSET	6.1442	10.1870	-3.7932
					CHANNELS 3 Zrotation Xrotation Yrotation
					JOINT Beta:LeftArm
					{
						OFFSET	12.3191	-1.1130	-1.7935
						CHANNELS 3 Zrotation Xrotation Yrotation
						JOINT Beta:LeftForeArm
						{
							OFFSET	27.6870	0.0000	0.0000
							CHANNELS 3 Xrotation Zrotation Yrotation
							JOINT Beta:LeftHand
							{
								OFFSET	27.8738	0.0000	0.0000
								CHANNELS 3 Zrotation Yrotation Xrotation
								JOINT Beta:LeftHandThumb1
								{
									OFFSET	2.3785	-1.0029	2.6209
									CHANNELS 3 Zrotation Xrotation Yrotation
									JOINT Beta:LeftHandThumb2
									{
										OFFSET	3.3624	-1.0029	2.8398
										CHANNELS 3 Zrotation Xrotation Yrotation
										JOINT Beta:LeftHandThumb3
										{
											OFFSET	4.5018	-1.3445	2.1783
											CHANNELS 3 Zrotation Xrotation Yrotation
											End Site
											{
												OFFSET 2.6000 -1.0000 1.0000
											}
										}
									}
								}
								JOINT Beta:LeftHandMiddle1
								{
									OFFSET	10.4639	0.6148	0.4298
									CHANNELS 3 Zrotation Xrotation Yrotation
									JOINT Beta:LeftHandMiddle2
									{
										OFFSET	5.7921	0.0000	0.0000
										CHANNELS 3 Zrotation Xrotation Yrotation
										JOINT Beta:LeftHandMiddle3
										{
											OFFSET	3.7132	0.0000	0.0000
											CHANNELS 3 Zrotation Xrotation Yrotation
											End Site
											{
												OFFSET 2.3000 0.0000 0.0000
											}
										}
									}
								}
								JOINT Beta:LeftHandIndex1
								{
									OFFSET	10.3945	0.6148	2.7055
									CHANNELS 3 Zrotation Xrotation Yrotation
									JOINT Beta:LeftHandIndex2
									{
										OFFSET	5.5493	0.0000	0.0000
										CHANNELS 3 Zrotation Xrotation Yrotation
										JOINT Beta:LeftHandIndex3
										{
											OFFSET	3.3911	0.0000	0.0000
											CHANNELS 3 Zrotation Xrotation Yrotation
											End Site
											{
												OFFSET 2.5000 0.0000 0.0000
											}
										}
									}
								}
								JOINT Beta:LeftHandRing1
								{
									OFFSET	10.3252	0.3211	-1.8755
									CHANNELS 3 Zrotation Xrotation Yrotation
									JOINT Beta:LeftHandRing2
									{
										OFFSET	5.4452	0.0000	0.0000
										CHANNELS 3 Zrotation Xrotation Yrotation
										JOINT Beta:LeftHandRing3
										{
											OFFSET	3.7132	0.0000	0.0000
											CHANNELS 3 Zrotation Xrotation Yrotation
											End Site
											{
												OFFSET 2.0000 0.0000 0.0000
											}
										}
									}
								}
								JOINT Beta:LeftHandPinky1
								{
									OFFSET	10.0130	-0.0783	-3.9671
									CHANNELS 3 Zrotation Xrotation Yrotation
									JOINT Beta:LeftHandPinky2
									{
										OFFSET	3.6763	0.0000	0.0000
										CHANNELS 3 Zrotation Xrotation Yrotation
										JOINT Beta:LeftHandPinky3
										{
											OFFSET	2.8113	0.0000	0.0000
											CHANNELS 3 Zrotation Xrotation Yrotation
											End Site
											{
												OFFSET 2.9000 0.0000 0.0000
											}
										}
									}
								}
							}
						}
					}
				}
				JOINT Beta:RightShoulder
				{
					OFFSET	-6.1402	10.1870	-3.7932
					CHANNELS 3 Zrotation Xrotation Yrotation
					JOINT Beta:RightArm
					{
						OFFSET	-12.3231	-1.1130	-1.7935
						CHANNELS 3 Zrotation Xrotation Yrotation
						JOINT Beta:RightForeArm
						{
							OFFSET	-27.6870	0.0000	0.0000
							CHANNELS 3 Xrotation Zrotation Yrotation
							JOINT Beta:RightHand
							{
								OFFSET	-27.8738	0.0000	0.0000
								CHANNELS 3 Zrotation Yrotation Xrotation
								JOINT Beta:RightHandThumb1
								{
									OFFSET	-2.5178	-0.9367	2.5137
									CHANNELS 3 Zrotation Xrotation Yrotation
									JOINT Beta:RightHandThumb2
									{
										OFFSET	-3.2638	-1.0870	2.9669
										CHANNELS 3 Zrotation Xrotation Yrotation
										JOINT Beta:RightHandThumb3
										{
											OFFSET	-4.4165	-1.3703	2.1350
											CHANNELS 3 Zrotation Xrotation Yrotation
											End Site
											{
												OFFSET -2.6000 -1.0000 1.0000
											}
										}
									}
								}
								JOINT Beta:RightHandIndex1
								{
									OFFSET	-10.4665	0.4896	2.7120
									CHANNELS 3 Zrotation Xrotation Yrotation
									JOINT Beta:RightHandIndex2
									{
										OFFSET	-5.3768	0.0000	0.0000
										CHANNELS 3 Zrotation Xrotation Yrotation
										JOINT Beta:RightHandIndex3
										{
											OFFSET	-3.3855	0.0000	0.0000
											CHANNELS 3 Zrotation Xrotation Yrotation
											End Site
											{
												OFFSET -2.6000 0.0000 0.0000
											}
										}
									}
								}
								JOINT Beta:RightHandMiddle1
								{
									OFFSET	-10.7596	0.4896	0.4278
									CHANNELS 3 Zrotation Xrotation Yrotation
									JOINT Beta:RightHandMiddle2
									{
										OFFSET	-5.6168	0.0000	0.0000
										CHANNELS 3 Zrotation Xrotation Yrotation
										JOINT Beta:RightHandMiddle3
										{
											OFFSET	-3.7364	0.0000	0.0000
											CHANNELS 3 Zrotation Xrotation Yrotation
											End Site
											{
												OFFSET -2.3000 0.0000 0.0000
											}
										}
									}
								}
								JOINT Beta:RightHandRing1
								{
									OFFSET	-10.4702	0.3879	-1.9363
									CHANNELS 3 Zrotation Xrotation Yrotation
									JOINT Beta:RightHandRing2
									{
										OFFSET	-5.4013	0.0000	0.0000
										CHANNELS 3 Zrotation Xrotation Yrotation
										JOINT Beta:RightHandRing3
										{
											OFFSET	-3.3916	0.0000	0.0000
											CHANNELS 3 Zrotation Xrotation Yrotation
											End Site
											{
												OFFSET -2.2000 0.0000 0.0000
											}
										}
									}
								}
								JOINT Beta:RightHandPinky1
								{
									OFFSET	-9.9715	-0.1191	-3.9540
									CHANNELS 3 Zrotation Xrotation Yrotation
									JOINT Beta:RightHandPinky2
									{
										OFFSET	-3.6528	0.0000	0.0000
										CHANNELS 3 Zrotation Xrotation Yrotation
										JOINT Beta:RightHandPinky3
										{
											OFFSET	-2.7820	0.0000	0.0000
											CHANNELS 3 Zrotation Xrotation Yrotation
											End Site
											{
												OFFSET -2.9000 0.0000 0.0000
											}
										}
									}
								}
							}
						}
					}
				}
			}
		}
	}
	JOINT Beta:LeftUpLeg
	{
		OFFSET	9.6338	-3.2733	0.0000
		CHANNELS 3 Xrotation Yrotation Zrotation
		JOINT Beta:LeftLeg
		{
			OFFSET	0.0000	-41.7300	-1.7300
			CHANNELS 3 Xrotation Yrotation Zrotation
			JOINT Beta:LeftFoot
			{
				OFFSET	0.0126	-39.1900	-0.8477
				CHANNELS 3 Xrotation Yrotation Zrotation
				JOINT Beta:LeftToeBase
				{
					OFFSET	-0.1833	-12.1931	8.2823
					CHANNELS 3 Xrotation Yrotation Zrotation
					End Site
					{
						OFFSET 0.0000 0.0000 10.1681
					}
				}
			}
		}
	}
	JOINT Beta:RightUpLeg
	{
		OFFSET	-9.6338	-3.2733	0.0000
		CHANNELS 3 Xrotation Yrotation Zrotation
		JOINT Beta:RightLeg
		{
			OFFSET	0.0000	-41.7300	-1.7300
			CHANNELS 3 Xrotation Yrotation Zrotation
			JOINT Beta:RightFoot
			{
				OFFSET	0.0126	-39.1900	-0.8477
				CHANNELS 3 Xrotation Yrotation Zrotation
				JOINT Beta:RightToeBase
				{
					OFFSET	-0.1833	-12.1931	8.2823
					CHANNELS 3 Xrotation Yrotation Zrotation
					End Site
					{
						OFFSET 0.0032 0.0000 10.1681
					}
				}
			}
		}
	}
}
MOTION
Frames: 4
Frame Time: 0.0333333
-0.0000 60.1332 39.0883 -0.0000 23.0104 -0.0000 21.4076 0.0000 -0.0000 10.4189 -0.0000 0.0001 12.5433 0.0000 0.0000 -5.3101 0.0000 0.0000 -0.0000 0.0000 -0.0000 22.8232 0.1174 -0.1756 25.8786 -7.3210 -18.0005 -25.1587 -43.8379 -40.5304 -0.0000 0.0000 -0.0850 -28.7977 -0.1307 12.8740 -17.1434 15.5708 10.2814 -5.5611 15.7801 44.0153 -0.4090 6.7376 16.7946 -54.0226 -0.0118 -0.7450 -31.2320 -0.0000 0.0000 -16.3121 0.0000 -0.0000 -52.1066 0.1462 7.3578 -24.3968 0.0000 0.0000 -20.4007 -0.0000 0.0000 -48.4657 -0.0602 -3.2499 -20.2943 0.0000 -0.0000 -17.5238 -0.0000 -0.0000 -43.5183 -0.1458 -8.6311 -9.8744 -0.0000 -0.0000 -24.5630 -0.0000 0.0000 -25.8786 -7.3211 18.0005 25.1588 -43.8378 40.5305 0.0000 0.0000 0.0850 28.7977 0.1307 12.8740 17.1434 15.5709 -10.2814 5.5610 15.7801 -44.0153 0.4090 6.7376 -16.7947 52.1066 0.1462 -7.3579 24.3968 0.0000 -0.0000 20.4007 -0.0000 -0.0000 54.0226 -0.0118 0.7450 31.2321 -0.0000 -0.0000 16.3121 0.0000 0.0000 48.4657 -0.0602 3.2499 20.2943 -0.0000 -0.0000 17.5238 0.0000 -0.0000 43.5184 -0.1458 8.6310 9.8744 -0.0000 0.0000 24.5630 -0.0000 -0.0000 -34.3158 -1.8241 5.5108 97.6674 -8.4854 -7.2243 -42.9579 -6.9004 8.9150 -46.7840 0.0000 -0.0000 -107.2514 4.3274 -1.7796 85.4484 0.4695 7.1437 -1.0753 1.0066 -2.6692 -0.0000 -0.0000 -0.0000 
-0.0000 59.9902 38.4047 -0.0000 18.7075 -0.0000 18.1727 0.0000 -0.0000 8.8662 -0.0000 0.0001 10.6511 0.0000 0.0000 -4.2575 0.0000 0.0000 -0.0000 0.0000 -0.0000 19.9858 0.1231 -0.1402 22.2702 -5.0104 -15.8777 -23.7422 -38.5520 -34.7918 0.0000 -0.0000 -0.1527 -24.6132 -0.5373 11.0846 -14.2882 13.4809 8.3493 -3.7659 13.7941 36.9572 -0.1880 5.6643 14.0797 -45.7642 -0.0171 -1.1804 -26.3252 -0.0000 0.0000 -13.6317 -0.0000 -0.0000 -43.6566 0.0868 4.9394 -20.6597 0.0000 -0.0000 -16.7083 0.0000 0.0000 -40.9374 -0.0348 -2.0936 -17.1095 -0.0000 0.0000 -14.5764 -0.0000 -0.0000 -35.9388 -0.0822 -5.5791 -9.0516 0.0000 -0.0000 -19.2995 -0.0000 0.0000 -22.2702 -5.0104 15.8777 23.7423 -38.5520 34.7918 -0.0000 -0.0000 0.1527 24.6132 0.5373 11.0847 14.2882 13.4809 -8.3493 3.7659 13.7941 -36.9572 0.1880 5.6643 -14.0797 43.6565 0.0868 -4.9395 20.6596 -0.0000 0.0000 16.7083 0.0000 -0.0000 45.7642 -0.0171 1.1804 26.3252 -0.0000 -0.0000 13.6317 -0.0000 0.0000 40.9374 -0.0348 2.0935 17.1095 -0.0000 -0.0000 14.5764 0.0000 0.0000 35.9389 -0.0822 5.5790 9.0516 -0.0000 0.0000 19.2995 0.0000 -0.0000 -31.7698 -1.1895 5.0528 99.2542 -8.8692 -6.0692 -39.7892 -5.0079 9.0920 -48.8494 0.0000 0.0000 -103.3238 3.2217 -1.8241 85.1958 0.4905 6.0315 -0.4621 1.0758 -2.6587 -0.0000 -0.0000 -0.0000 
-0.0000 59.9344 37.5880 -0.0000 14.4651 -0.0000 14.6509 0.0000 -0.0000 7.1234 -0.0000 0.0001 8.5718 0.0000 0.0000 -3.2704 0.0000 0.0000 -0.0000 0.0000 -0.0000 16.4905 0.1172 -0.1020 18.2054 -2.9124 -13.2252 -21.1144 -32.1577 -27.8984 -0.0000 -0.0000 -0.2258 -19.8762 -0.8736 8.9425 -11.3182 11.1014 6.4130 -2.2273 11.4525 29.6772 -0.0285 4.6057 11.4164 -37.0015 -0.0178 -1.4347 -21.2713 0.0000 0.0000 -11.0405 0.0000 0.0000 -34.9511 0.0442 2.8528 -16.7321 -0.0000 -0.0000 -12.9150 -0.0000 0.0000 -33.0339 -0.0169 -1.1319 -13.8911 -0.0000 -0.0000 -11.6694 -0.0000 -0.0000 -28.4679 -0.0400 -3.1269 -7.8788 -0.0000 -0.0000 -14.4096 0.0000 0.0000 -18.2054 -2.9124 13.2252 21.1145 -32.1576 27.8985 -0.0000 -0.0000 0.2258 19.8762 0.8736 8.9426 11.3182 11.1014 -6.4130 2.2273 11.4525 -29.6772 0.0285 4.6057 -11.4164 34.9510 0.0442 -2.8529 16.7321 -0.0000 0.0000 12.9150 0.0000 -0.0000 37.0015 -0.0178 1.4347 21.2713 0.0000 0.0000 11.0405 -0.0000 -0.0000 33.0339 -0.0169 1.1319 13.8911 -0.0000 0.0000 11.6694 0.0000 0.0000 28.4679 -0.0400 3.1269 7.8788 -0.0000 0.0000 14.4096 0.0000 -0.0000 -28.8781 -0.6409 4.3371 100.5468 -8.0300 -4.7934 -38.5793 -3.8741 8.2526 -49.6466 -0.0000 -0.0000 -99.3249 2.2319 -1.6309 84.5828 0.5014 4.7868 0.3553 0.8949 -2.4159 -0.0000 0.0000 0.0000 
-0.0000 59.9953 36.6442 -0.0000 10.4164 -0.0000 11.0017 0.0000 -0.0000 5.2986 -0.0000 0.0001 6.4119 0.0000 0.0000 -2.3589 0.0000 0.0000 -0.0000 0.0000 -0.0000 12.5887 0.0993 -0.0660 13.8383 -1.2624 -10.1729 -17.3394 -24.8959 -20.4655 -0.0000 -0.0000 -0.2972 -14.8662 -1.0291 6.6169 -8.3668 8.5199 4.5771 -1.0457 8.8482 22.3694 0.0727 3.5477 8.7810 -28.0070 -0.0148 -1.4594 -16.1650 -0.0000 -0.0000 -8.5083 -0.0000 -0.0000 -26.2549 0.0180 1.2600 -12.7128 -0.0000 0.0000 -9.3237 0.0000 -0.0000 -24.9849 -0.0063 -0.4356 -10.6492 -0.0000 0.0000 -8.8392 -0.0000 -0.0000 -21.2574 -0.0158 -1.3740 -6.3618 -0.0000 -0.0000 -10.1659 0.0000 -0.0000 -13.8383 -1.2624 10.1729 17.3395 -24.8959 20.4655 -0.0000 -0.0000 0.2972 14.8662 1.0291 6.6170 8.3668 8.5200 -4.5771 1.0457 8.8482 -22.3694 -0.0727 3.5477 -8.7810 26.2548 0.0180 -1.2600 12.7128 0.0000 -0.0000 9.3237 0.0000 0.0000 28.0070 -0.0148 1.4594 16.1650 0.0000 0.0000 8.5083 -0.0000 -0.0000 24.9849 -0.0063 0.4356 10.6492 -0.0000 0.0000 8.8392 0.0000 0.0000 21.2574 -0.0158 1.3740 6.3618 -0.0000 -0.0000 10.1659 -0.0000 -0.0000 -25.9990 -0.1914 3.4098 101.5726 -6.5637 -3.4819 -38.3329 -3.0830 6.9441 -49.6042 -0.0000 -0.0000 -95.3189 1.4037 -1.2400 83.5494 0.4490 3.4945 1.3913 0.5767 -1.9748 0.0000 0.0000 0.0000 
